Coordinates
version=1
nRows=16
nColumns=22
inDegrees=yes

Units are S.I. units (second, meters, Newtons, ...)
If the header above contains a line with 'inDegrees', this indicates whether rotational values are in degrees (yes) or radians (no).

endheader
time	pelvis_tilt	pelvis_list	pelvis_rotation	pelvis_tx	pelvis_ty	pelvis_tz	hip_flexion_r	hip_adduction_r	hip_rotation_r	knee_angle_r	ankle_angle_r	subtalar_angle_r	hip_flexion_l	hip_adduction_l	hip_rotation_l	knee_angle_l	ankle_angle_l	subtalar_angle_l	lumbar_extension	lumbar_bending	lumbar_rotation
      2.91000000	     -3.29845574	      5.79486691	    154.20229501	      0.76935474	      0.90610403	     -0.59964126	    -19.60296244	      1.44342331	    -11.73054991	    -28.76264546	     -6.52695803	     18.94148747	     20.11568418	      3.62168827	    -17.23736308	    -26.93113299	     13.37254668	    -32.37534521	     -9.39222895	      2.29243792	     -0.95983748
      2.92000000	     -3.48721485	      5.64382500	    154.51091189	      0.75828667	      0.90810082	     -0.60434130	    -18.55563181	      0.90080480	    -10.76797595	    -31.37164725	     -9.03647606	     18.52336063	     19.29578415	      4.00345516	    -16.71705495	    -27.09893654	     13.91870181	    -32.72813808	     -9.30263347	      2.12913609	     -1.14165570
      2.93000000	     -3.66786258	      5.51330092	    154.83394245	      0.74746781	      0.90999839	     -0.60882934	    -17.33309916	      0.37341356	     -9.85648463	    -34.14477118	    -11.13613198	     17.82854119	     18.42707768	      4.35295493	    -16.27447057	    -27.16431566	     14.55146693	    -33.03283956	     -9.27588452	      1.99832249	     -1.39890580
      2.94000000	     -3.87691675	      5.39959604	    155.16354140	      0.73694639	      0.91181316	     -0.61309767	    -15.96326669	     -0.18031243	     -9.07203960	    -37.06912436	    -12.77530762	     17.14703994	     17.48509443	      4.67452597	    -15.96147411	    -27.14329768	     15.11812065	    -33.03861755	     -9.35910916	      1.87214010	     -1.66496777
      2.95000000	     -4.10182251	      5.28602740	    155.50817263	      0.72668977	      0.91350000	     -0.61711324	    -14.44337549	     -0.77093148	     -8.41902018	    -40.09393500	    -13.86502845	     16.52878253	     16.48347186	      4.99126525	    -15.75100545	    -27.02048034	     15.67624904	    -32.86491425	     -9.52214798	      1.74945239	     -1.96775982
      2.96000000	     -4.35152578	      5.16505804	    155.87144100	      0.71667122	      0.91508953	     -0.62086177	    -12.80116600	     -1.41214426	     -7.88421258	    -43.14580197	    -14.47972716	     16.21449526	     15.41665628	      5.31703796	    -15.64847567	    -26.79396730	     16.18971814	    -32.61356144	     -9.76237967	      1.62406333	     -2.31225430
      2.97000000	     -4.55427867	      5.02840324	    156.27189498	      0.70687523	      0.91648615	     -0.62431395	    -10.98760753	     -2.06458164	     -7.43968002	    -46.16139582	    -14.50302087	     15.58456959	     14.35977509	      5.65549514	    -15.51145805	    -26.45195064	     16.68584509	    -32.15254231	     -9.99007703	      1.52686049	     -2.69430190
      2.98000000	     -4.78745760	      4.85984518	    156.70340197	      0.69724328	      0.91783806	     -0.62748994	     -9.10633703	     -2.78246273	     -7.05768830	    -49.05419200	    -14.20147363	     15.39683219	     13.24161476	      6.04480692	    -15.42022442	    -25.99854150	     17.10682665	    -31.80605330	    -10.26804434	      1.40244865	     -3.10418729
      2.99000000	     -4.93900344	      4.69037077	    157.19797412	      0.68776574	      0.91905133	     -0.63038359	     -7.09947886	     -3.43869030	     -6.68461682	    -51.73673768	    -13.56300210	     14.89794562	     12.17548986	      6.42378951	    -15.21550963	    -25.45740704	     17.44839252	    -31.26419748	    -10.47785420	      1.34018324	     -3.56326531
      3.00000000	     -5.07805319	      4.52420452	    157.77463768	      0.67836112	      0.92022860	     -0.63302875	     -5.08313933	     -4.06343633	     -6.36730721	    -54.13937822	    -12.75099210	     14.35192450	     11.10864555	      6.79318767	    -14.98723234	    -24.88446907	     17.79808766	    -30.74168686	    -10.67941963	      1.30844178	     -4.11135405
      3.01000000	     -5.19438678	      4.37328635	    158.44332195	      0.66902296	      0.92143128	     -0.63542695	     -3.08710484	     -4.60546920	     -6.05781228	    -56.20423914	    -11.77029686	     14.02951060	     10.03351916	      7.15647546	    -14.60758132	    -24.24622271	     18.05036106	    -30.34419824	    -10.86176151	      1.32200775	     -4.71547021
      3.02000000	     -5.23673147	      4.27281177	    159.20837888	      0.65977843	      0.92258220	     -0.63761827	     -1.08600362	     -5.00849825	     -5.79570628	    -57.91725974	    -10.73600971	     13.19296780	      9.03402374	      7.43170253	    -14.08717003	    -23.64385409	     18.30307645	    -29.79618961	    -10.97923462	      1.43244500	     -5.33092607
      3.03000000	     -5.27765751	      4.21244166	    160.07790422	      0.65056093	      0.92381488	     -0.63963120	      0.81251241	     -5.30212485	     -5.57294705	    -59.24544189	     -9.58816541	     12.51065707	      8.00863902	      7.66070393	    -13.43090844	    -23.01643325	     18.49278493	    -29.34080295	    -11.09230041	      1.59382045	     -6.00983488
      3.04000000	     -5.30540296	      4.19546941	    161.04464971	      0.64139513	      0.92509652	     -0.64147358	      2.61925171	     -5.48462274	     -5.39214269	    -60.20258964	     -8.35303966	     11.86615001	      6.98184963	      7.82690668	    -12.62836224	    -22.38813109	     18.59846578	    -28.91168716	    -11.18865654	      1.81248362	     -6.72143279
      3.05000000	     -5.33549940	      4.22029479	    162.08506770	      0.63227203	      0.92641688	     -0.64319647	      4.31729226	     -5.57504068	     -5.24718646	    -60.80029463	     -7.03075189	     11.13593196	      5.93554441	      7.92327393	    -11.74904493	    -21.75781855	     18.70940991	    -28.47815753	    -11.28057369	      2.07547354	     -7.45003710
      3.06000000	     -5.38439706	      4.27793964	    163.16111034	      0.62321016	      0.92776412	     -0.64486707	      5.90344058	     -5.59033676	     -5.09885789	    -61.06509822	     -5.62007710	     10.31079825	      4.85576460	      7.95611865	    -10.83287673	    -21.12275558	     18.84312781	    -28.05706494	    -11.38500632	      2.35830946	     -8.15802191
